<svg width="23" height="26" viewBox="0 0 23 26" fill="none" xmlns="http://www.w3.org/2000/svg">
<path d="M12.7495 23.501C13.4399 23.501 13.9995 24.0606 13.9995 24.751C13.9993 25.4411 13.4397 26.001 12.7495 26.001H10.2495C9.55934 26.001 8.9998 25.4411 8.99954 24.751C8.99954 24.0606 9.55918 23.501 10.2495 23.501H12.7495ZM11.5025 0C13.3713 6.50232e-05 14.8528 0.422874 15.9468 0.917969C17.8437 1.77647 18.8115 3.29688 19.439 5.23145C19.775 6.26742 20.1056 7.57628 20.3101 9.12402C20.5229 10.7348 20.6296 11.5406 20.7036 11.877C20.7082 11.8975 20.7122 11.9175 20.7163 11.9365C20.7702 12.1814 20.7972 12.3039 20.8325 12.4238C20.8678 12.5438 20.9113 12.6617 20.9986 12.8965C21.0053 12.9146 21.0128 12.9335 21.02 12.9531C21.1399 13.2757 21.4009 13.8292 21.9234 14.9355C23.0104 17.2376 23.3367 18.7634 22.6099 20.0186C21.4639 21.9972 18.4565 22 12.4409 22H10.5581C4.54261 22 1.53515 21.9972 0.389187 20.0186C-0.33958 18.7601 -0.00958347 17.2294 1.0845 14.917C1.60333 13.8204 1.86236 13.2718 1.98196 12.9512C1.98888 12.9326 1.99603 12.9147 2.00247 12.8975C2.09185 12.6579 2.13633 12.5374 2.17239 12.415C2.20841 12.2927 2.23577 12.1677 2.29055 11.918C2.29451 11.8999 2.29899 11.8807 2.30325 11.8613C2.37667 11.5266 2.48227 10.7255 2.69387 9.12402C2.89839 7.57628 3.22898 6.26742 3.56497 5.23145C4.19245 3.29691 5.16032 1.77646 7.05716 0.917969C8.15121 0.422836 9.6334 0 11.5025 0ZM11.5025 2.5C10.0226 2.5 8.8905 2.83237 8.08841 3.19531C7.06542 3.65828 6.44722 4.448 5.9429 6.00293C5.6491 6.90881 5.3551 8.06849 5.17239 9.45117L5.13626 9.72266C4.95707 11.0799 4.8415 11.9562 4.74466 12.3975L4.72805 12.4746C4.6806 12.6918 4.63347 12.9094 4.57083 13.1221C4.50816 13.3348 4.4299 13.543 4.35208 13.751L4.32473 13.8242C4.16699 14.2472 3.86755 14.8784 3.42727 15.8086L3.34426 15.9863C2.82817 17.0771 2.59628 17.7773 2.52395 18.2451C2.46623 18.6186 2.52594 18.7213 2.54934 18.7607L2.55227 18.7656C2.57824 18.8105 2.61119 18.863 2.76614 18.9434C2.96545 19.0467 3.33817 19.1768 4.01907 19.2793C5.43585 19.4926 7.46562 19.5 10.5581 19.5H12.4409C15.5334 19.5 17.5632 19.4926 18.98 19.2793C19.6609 19.1768 20.0336 19.0467 20.2329 18.9434C20.3876 18.8632 20.4238 18.8065 20.4497 18.7617C20.473 18.7225 20.5331 18.6201 20.4761 18.248C20.4049 17.7835 20.1748 17.0876 19.6626 16.0029L19.5786 15.8242C19.1353 14.8857 18.8344 14.2488 18.6763 13.8232L18.649 13.749C18.5726 13.5441 18.4957 13.3383 18.4341 13.1289C18.3726 12.9199 18.3256 12.7057 18.2788 12.4922L18.2622 12.4141C18.1646 11.9704 18.0479 11.0896 17.8677 9.72461L17.8316 9.45117C17.6489 8.06851 17.3549 6.9088 17.0611 6.00293C16.5567 4.44797 15.9385 3.65829 14.9156 3.19531C14.1136 2.83242 12.9821 2.50006 11.5025 2.5Z" fill="#8D969F"/>
</svg>
