<svg width="22" height="22" viewBox="0 0 22 22" fill="none" xmlns="http://www.w3.org/2000/svg">
<path d="M3.16699 16C3.4001 16 3.63339 16.0105 3.85938 16.0273C4.73097 16.0922 5.16707 16.1242 5.60449 16.5615C6.04201 16.9991 6.07477 17.4356 6.13965 18.3076C6.15647 18.5337 6.16602 18.7668 6.16602 19C6.16602 19.2332 6.15647 19.4663 6.13965 19.6924C6.07477 20.5644 6.04201 21.0009 5.60449 21.4385C5.16707 21.8758 4.73097 21.9078 3.85938 21.9727C3.63339 21.9895 3.4001 22 3.16699 22C2.93394 22 2.70053 21.9895 2.47461 21.9727C1.60314 21.9078 1.16692 21.876 0.729492 21.4385C0.291978 21.0009 0.260194 20.5644 0.195312 19.6924C0.178493 19.4663 0.167969 19.2332 0.167969 19C0.167969 18.7668 0.178493 18.5337 0.195312 18.3076C0.260194 17.4356 0.291978 16.9991 0.729492 16.5615C1.16692 16.124 1.60314 16.0922 2.47461 16.0273C2.70053 16.0105 2.93394 16 3.16699 16ZM11.001 16C11.2341 16 11.4674 16.0105 11.6934 16.0273C12.5649 16.0922 13.0011 16.1242 13.4385 16.5615C13.876 16.9991 13.9087 17.4356 13.9736 18.3076C13.9905 18.5337 14.001 18.7668 14.001 19C14.001 19.2332 13.9905 19.4663 13.9736 19.6924C13.9087 20.5644 13.876 21.0009 13.4385 21.4385C13.0011 21.8758 12.5649 21.9078 11.6934 21.9727C11.4674 21.9895 11.2341 22 11.001 22C10.768 22 10.5345 21.9895 10.3086 21.9727C9.43716 21.9078 9.0009 21.876 8.56348 21.4385C8.12596 21.0009 8.09418 20.5644 8.0293 19.6924C8.01248 19.4663 8.00195 19.2332 8.00195 19C8.00195 18.7668 8.01248 18.5337 8.0293 18.3076C8.09418 17.4356 8.12596 16.9991 8.56348 16.5615C9.0009 16.124 9.43716 16.0922 10.3086 16.0273C10.5345 16.0105 10.768 16 11.001 16ZM18.998 16C19.2312 16 19.4644 16.0105 19.6904 16.0273C20.562 16.0922 20.9981 16.1241 21.4355 16.5615C21.8731 16.9991 21.9058 17.4356 21.9707 18.3076C21.9875 18.5336 21.9971 18.7668 21.9971 19C21.9971 19.2332 21.9875 19.4664 21.9707 19.6924C21.9058 20.5644 21.8731 21.0009 21.4355 21.4385C20.9981 21.8759 20.562 21.9078 19.6904 21.9727C19.4644 21.9895 19.2312 22 18.998 22C18.7649 22 18.5317 21.9895 18.3057 21.9727C17.4341 21.9078 16.998 21.8759 16.5605 21.4385C16.123 21.0009 16.0903 20.5644 16.0254 19.6924C16.0086 19.4664 15.999 19.2332 15.999 19C15.999 18.7668 16.0086 18.5336 16.0254 18.3076C16.0903 17.4356 16.123 16.9991 16.5605 16.5615C16.998 16.1241 17.4341 16.0922 18.3057 16.0273C18.5317 16.0105 18.7649 16 18.998 16ZM3.00195 8.00098C3.23507 8.00098 3.46835 8.0115 3.69434 8.02832C4.56601 8.09321 5.00196 8.12588 5.43945 8.56348C5.87677 9.00101 5.90975 9.43685 5.97461 10.3086C5.99142 10.5346 6.00097 10.7679 6.00098 11.001C6.00098 11.2341 5.99142 11.4674 5.97461 11.6934C5.90973 12.5654 5.87697 13.0018 5.43945 13.4395C5.00198 13.877 4.56599 13.9097 3.69434 13.9746C3.46835 13.9914 3.23507 14.001 3.00195 14.001C2.76884 14.001 2.53556 13.9914 2.30957 13.9746C1.43792 13.9097 1.00193 13.877 0.564453 13.4395C0.126936 13.0018 0.0941793 12.5654 0.0292969 11.6934C0.0124902 11.4674 0.00292969 11.2341 0.00292969 11.001C0.0029368 10.7679 0.0124836 10.5346 0.0292969 10.3086C0.0941606 9.43685 0.127134 9.00101 0.564453 8.56348C1.00194 8.12588 1.43789 8.09321 2.30957 8.02832C2.53556 8.0115 2.76884 8.00098 3.00195 8.00098ZM18.998 8.00098C19.2312 8.00098 19.4644 8.0115 19.6904 8.02832C20.5621 8.09321 20.9981 8.12588 21.4355 8.56348C21.8729 9.00101 21.9058 9.43685 21.9707 10.3086C21.9875 10.5346 21.9971 10.7679 21.9971 11.001C21.9971 11.2341 21.9875 11.4674 21.9707 11.6934C21.9058 12.5654 21.8731 13.0018 21.4355 13.4395C20.9981 13.877 20.5621 13.9097 19.6904 13.9746C19.4644 13.9914 19.2312 14.001 18.998 14.001C18.7649 14.001 18.5317 13.9914 18.3057 13.9746C17.434 13.9097 16.998 13.877 16.5605 13.4395C16.123 13.0018 16.0903 12.5654 16.0254 11.6934C16.0086 11.4674 15.999 11.2341 15.999 11.001C15.999 10.7679 16.0086 10.5346 16.0254 10.3086C16.0903 9.43685 16.1232 9.00101 16.5605 8.56348C16.998 8.12588 17.434 8.09321 18.3057 8.02832C18.5317 8.0115 18.7649 8.00098 18.998 8.00098ZM11.001 8.00293C11.234 8.00293 11.4675 8.01248 11.6934 8.0293C12.5647 8.09416 13.0002 8.1271 13.4375 8.56445C13.8748 9.00188 13.9078 9.43796 13.9727 10.3096C13.9894 10.5353 13.999 10.7681 13.999 11.001C13.999 11.234 13.9895 11.4674 13.9727 11.6934C13.9078 12.565 13.8748 13.001 13.4375 13.4385C13.0003 13.8757 12.5645 13.9078 11.6934 13.9727C11.4675 13.9895 11.234 14 11.001 14C10.7681 14 10.5353 13.9895 10.3096 13.9727C9.43839 13.9078 9.00265 13.8756 8.56543 13.4385C8.12811 13.001 8.09513 12.565 8.03027 11.6934C8.01347 11.4674 8.00293 11.234 8.00293 11.001C8.00294 10.7681 8.01349 10.5353 8.03027 10.3096C8.09513 9.43796 8.12811 9.00188 8.56543 8.56445C9.00269 8.12721 9.43831 8.09416 10.3096 8.0293C10.5353 8.0125 10.7681 8.00294 11.001 8.00293ZM3.00098 0C3.23407 1.08157e-05 3.46739 0.0105219 3.69336 0.0273438C4.56537 0.092259 5.00178 0.12472 5.43945 0.5625C5.87688 1.00022 5.90971 1.43642 5.97461 2.30859C5.99143 2.53462 6.00097 2.76782 6.00098 3.00098C6.00098 3.23426 5.99144 3.46819 5.97461 3.69434C5.90972 4.56643 5.87695 5.00271 5.43945 5.44043C5.00178 5.87821 4.56538 5.91067 3.69336 5.97559C3.46739 5.99241 3.23407 6.00292 3.00098 6.00293C2.76775 6.00293 2.53371 5.99242 2.30762 5.97559C1.43588 5.91069 1.00007 5.87799 0.5625 5.44043C0.124839 5.00266 0.0922396 4.56651 0.0273438 3.69434C0.0105171 3.46819 0 3.23426 0 3.00098C1.06647e-05 2.76782 0.0105259 2.53462 0.0273438 2.30859C0.0922517 1.43625 0.124799 1.00031 0.5625 0.5625C1.00011 0.124826 1.43581 0.0922439 2.30762 0.0273438C2.53371 0.010513 2.76775 0 3.00098 0ZM18.999 0C19.2322 0 19.4663 0.010513 19.6924 0.0273438C20.5642 0.0922437 20.9999 0.124824 21.4375 0.5625C21.8752 1.00031 21.9077 1.43625 21.9727 2.30859C21.9895 2.53462 22 2.76782 22 3.00098C22 3.23426 21.9895 3.46819 21.9727 3.69434C21.9078 4.56651 21.8752 5.00266 21.4375 5.44043C20.9999 5.87799 20.5641 5.91069 19.6924 5.97559C19.4663 5.99242 19.2322 6.00293 18.999 6.00293C18.7659 6.00292 18.5326 5.99241 18.3066 5.97559C17.4346 5.91067 16.9982 5.87821 16.5605 5.44043C16.123 5.00271 16.0903 4.56643 16.0254 3.69434C16.0086 3.46819 15.999 3.23426 15.999 3.00098C15.999 2.76782 16.0086 2.53462 16.0254 2.30859C16.0903 1.43642 16.1231 1.00022 16.5605 0.5625C16.9982 0.124719 17.4346 0.0922594 18.3066 0.0273438C18.5326 0.0105217 18.7659 1.06143e-05 18.999 0ZM11.001 0C11.234 0 11.4674 0.0105309 11.6934 0.0273438C12.5649 0.0922222 13.0011 0.12428 13.4385 0.561523C13.876 0.999148 13.9087 1.43562 13.9736 2.30762C13.9905 2.53366 14.001 2.76683 14.001 3C14.001 3.23317 13.9905 3.46634 13.9736 3.69238C13.9087 4.56438 13.876 5.00085 13.4385 5.43848C13.0011 5.87572 12.5649 5.90778 11.6934 5.97266C11.4674 5.98947 11.234 6 11.001 6C10.7681 5.99999 10.5353 5.98945 10.3096 5.97266C9.4381 5.90778 9.00181 5.87566 8.56445 5.43848C8.12694 5.00085 8.09418 4.56438 8.0293 3.69238C8.01248 3.46634 8.00195 3.23317 8.00195 3C8.00195 2.76683 8.01248 2.53366 8.0293 2.30762C8.09418 1.43562 8.12694 0.999148 8.56445 0.561523C9.00181 0.124345 9.4381 0.0922188 10.3096 0.0273438C10.5353 0.0105471 10.7681 1.22181e-05 11.001 0Z" fill="#8D969F"/>
</svg>
