<svg width="115" height="40" viewBox="0 0 115 40" fill="none" xmlns="http://www.w3.org/2000/svg">
<g clip-path="url(#clip0_1_5507)">
<path d="M114.54 20.0647C114.54 25.0988 114.557 30.131 114.534 35.165C114.518 38.3824 111.889 40.4416 108.54 39.9127C106.675 39.6191 105.022 38.0504 104.715 36.2539C104.633 35.7724 104.594 35.2799 104.594 34.7929C104.588 24.9711 104.585 15.1492 104.592 5.32743C104.594 2.48941 106.092 0.619891 108.647 0.20586C111.866 -0.313958 114.524 1.81091 114.536 4.96447C114.555 9.99851 114.54 15.0326 114.54 20.0647Z" fill="#2662F3"/>
<path fill-rule="evenodd" clip-rule="evenodd" d="M76.9001 35.8707C79.5993 38.4041 83.2574 39.7976 87.1994 39.7976H87.2073C95.3654 39.794 101.76 33.5999 101.766 25.6968C101.769 21.8593 100.289 18.3063 97.6038 15.6927C94.8967 13.0589 91.2036 11.607 87.2073 11.6052H87.1994C78.9848 11.6052 72.5439 17.7536 72.538 25.6056C72.5341 29.5836 74.0841 33.2296 76.9001 35.8707ZM87.141 30.1125H87.1391C85.9042 30.1125 84.7549 29.6639 83.903 28.8449C83.0396 28.0169 82.5651 26.8915 82.567 25.6787C82.571 23.22 84.6245 21.2209 87.1469 21.2209H87.1508C89.6634 21.2228 91.7093 23.2291 91.7093 25.6932C91.7113 26.9097 91.2367 28.0333 90.3771 28.8559C89.5292 29.6657 88.3799 30.1125 87.141 30.1125Z" fill="#2662F3"/>
<path d="M48.402 26.7017C47.239 29.7677 46.1713 32.584 45.1017 35.3983C44.9267 35.8579 44.7516 36.3193 44.5533 36.7699C43.7385 38.612 42.3033 39.7136 40.1445 39.8212C38.1143 39.9216 36.4302 39.1647 35.452 37.5049C34.4484 35.8013 33.6511 33.9865 32.8324 32.1917C30.8564 27.86 28.867 23.5317 27.0098 19.1563C26.5606 18.0983 26.3448 16.8325 26.4731 15.7089C26.7201 13.5549 28.4703 12.1469 30.6465 11.9827C33.0735 11.7985 35.1699 13.0078 35.9051 15.0797C37.0466 18.2899 38.1454 21.5145 39.2656 24.7301C39.4134 25.1569 39.5826 25.5764 39.8335 26.2403C40.7592 23.5701 41.5759 21.1205 42.4627 18.6929C43.0033 17.2119 43.5323 15.7089 44.2849 14.3209C45.1834 12.663 46.7334 11.8404 48.789 11.9736C50.8329 12.1049 52.27 13.0825 52.9449 14.8408C54.2673 18.288 55.4692 21.7753 56.7235 25.2444C56.8266 25.5308 56.9412 25.8153 57.1145 26.2695C58.396 22.5925 59.6386 19.0851 60.8386 15.5667C61.4648 13.7283 62.6103 12.4004 64.7124 12.052C66.5502 11.7456 68.2305 12.1286 69.4771 13.5184C70.9337 15.1453 70.9103 16.9985 70.0975 18.848C67.9816 23.654 65.8073 28.4381 63.6507 33.2296C63.1158 34.4188 62.6142 35.6263 61.9956 36.7789C60.7239 39.1464 58.5165 40.1843 55.9398 39.7155C54.0009 39.3635 52.9351 38.1251 52.2875 36.5072C51.1518 33.6655 50.055 30.8092 48.9387 27.9603C48.8025 27.6119 48.647 27.2727 48.402 26.7017Z" fill="#2662F3"/>
<path d="M18.0715 24.3001C20.6968 27.0908 23.1706 29.7081 25.6268 32.3381C27.5249 34.3683 27.3732 37.1807 25.2923 38.8843C23.2231 40.5787 20.0474 40.3105 18.231 38.1857C15.6191 35.1307 13.0891 32.0153 10.522 28.9256C10.3664 28.7377 10.1972 28.5591 9.87636 28.196C9.81607 28.6375 9.75578 28.8783 9.75384 29.1208C9.74606 31.1836 9.7694 33.2465 9.74218 35.3093C9.70717 38.0471 7.73326 39.9331 4.94449 39.9385C2.10712 39.944 0.0184745 38.0143 0.0126403 35.2965C-0.00486238 25.0881 -0.00291658 14.8777 0.0106966 4.66925C0.0145861 1.90419 2.041 -0.00546004 4.88228 1.17283e-05C7.66519 0.00548351 9.72661 1.97532 9.74023 4.71304C9.76356 9.46801 9.74801 14.2229 9.74801 18.978C9.74801 19.3208 9.74801 19.6619 9.74801 20.1927C10.0903 19.9173 10.312 19.7677 10.4967 19.5853C12.4473 17.6556 14.3803 15.7113 16.3406 13.7925C17.6164 12.5431 19.1509 11.7899 21.0449 12.0689C22.8323 12.3316 24.1722 13.2545 24.7653 14.8869C25.3915 16.6087 25.0648 18.2484 23.6859 19.5471C22.1088 21.0317 20.4091 22.4033 18.756 23.8187C18.5713 23.9755 18.3516 24.1032 18.0715 24.3001Z" fill="#2662F3"/>
</g>
<defs>
<clipPath id="clip0_1_5507">
<rect width="114.545" height="40" fill="white"/>
</clipPath>
</defs>
</svg>
